<svg width="130" height="96" viewBox="0 0 130 96" fill="none" xmlns="http://www.w3.org/2000/svg">
<path fill-rule="evenodd" clip-rule="evenodd" d="M65 64C82.6731 64 97 49.6731 97 32C97 14.3269 82.6731 0 65 0C47.3269 0 33 14.3269 33 32C33 49.6731 47.3269 64 65 64Z" fill="#DBDBDB"/>
<path fill-rule="evenodd" clip-rule="evenodd" d="M65 36.0553L69.944 39L68.632 33.45L73 29.7158L67.248 29.2342L65 24L62.752 29.2342L57 29.7158L61.368 33.45L60.056 39L65 36.0553Z" fill="#969696"/>
<path d="M22.3817 90H24.3579V85.3658H28.8909V83.7092H24.3579V80.7475H29.3703V79.0909H22.3817V90ZM34.0071 90.1598C35.914 90.1598 37.2244 89.2276 37.5653 87.8054L35.7649 87.603C35.5039 88.2955 34.8647 88.6577 34.0337 88.6577C32.7873 88.6577 31.9616 87.8374 31.9456 86.4364H37.6452V85.8452C37.6452 82.9741 35.9194 81.7116 33.9059 81.7116C31.5621 81.7116 30.0333 83.4322 30.0333 85.957C30.0333 88.5245 31.5408 90.1598 34.0071 90.1598ZM31.951 85.1367C32.0096 84.0927 32.7819 83.2138 33.9325 83.2138C35.0404 83.2138 35.7862 84.0234 35.7968 85.1367H31.951ZM41.5309 90.1651C42.8146 90.1651 43.5817 89.5632 43.9333 88.8761H43.9972V90H45.8509V84.5241C45.8509 82.3615 44.0877 81.7116 42.527 81.7116C40.8065 81.7116 39.4855 82.4787 39.0593 83.9702L40.8597 84.2259C41.0515 83.6665 41.5948 83.1871 42.5377 83.1871C43.4325 83.1871 43.9226 83.6452 43.9226 84.4496V84.4815C43.9226 85.0355 43.342 85.0621 41.8985 85.2166C40.3111 85.3871 38.793 85.8612 38.793 87.7042C38.793 89.3129 39.9702 90.1651 41.5309 90.1651ZM42.0316 88.7482C41.2273 88.7482 40.652 88.3807 40.652 87.6722C40.652 86.9318 41.2965 86.6229 42.1595 86.5004C42.6655 86.4311 43.6776 86.3033 43.9279 86.1009V87.065C43.9279 87.9759 43.1928 88.7482 42.0316 88.7482ZM51.7754 81.8182H50.1614V79.858H48.2331V81.8182H47.0719V83.3097H48.2331V87.8587C48.2225 89.3981 49.3411 90.1545 50.7899 90.1119C51.3386 90.0959 51.7168 89.9893 51.9245 89.9201L51.5996 88.4126C51.4931 88.4393 51.2747 88.4872 51.035 88.4872C50.5502 88.4872 50.1614 88.3168 50.1614 87.5391V83.3097H51.7754V81.8182ZM58.5029 86.5589C58.5029 87.8054 57.6133 88.4233 56.761 88.4233C55.8342 88.4233 55.2163 87.7681 55.2163 86.7294V81.8182H53.288V87.0277C53.288 88.9933 54.4066 90.1065 56.0153 90.1065C57.2404 90.1065 58.1034 89.462 58.4762 88.5458H58.5615V90H60.4311V81.8182H58.5029V86.5589ZM62.314 90H64.2423V85.19C64.2423 84.1513 65.0253 83.4162 66.0853 83.4162C66.4102 83.4162 66.8151 83.4748 66.9802 83.5281V81.7543C66.8044 81.7223 66.5008 81.701 66.2877 81.701C65.3502 81.701 64.5672 82.2337 64.2689 83.1818H64.1837V81.8182H62.314V90ZM71.4465 90.1598C73.3535 90.1598 74.6639 89.2276 75.0048 87.8054L73.2043 87.603C72.9433 88.2955 72.3041 88.6577 71.4732 88.6577C70.2267 88.6577 69.4011 87.8374 69.3851 86.4364H75.0847V85.8452C75.0847 82.9741 73.3588 81.7116 71.3453 81.7116C69.0016 81.7116 67.4728 83.4322 67.4728 85.957C67.4728 88.5245 68.9803 90.1598 71.4465 90.1598ZM69.3904 85.1367C69.449 84.0927 70.2214 83.2138 71.3719 83.2138C72.4799 83.2138 73.2256 84.0234 73.2363 85.1367H69.3904ZM90.0698 84.5455C90.0698 81.0192 87.9178 78.9418 85.0573 78.9418C82.1916 78.9418 80.0449 81.0192 80.0449 84.5455C80.0449 88.0664 82.1916 90.1491 85.0573 90.1491C87.9178 90.1491 90.0698 88.0717 90.0698 84.5455ZM88.0829 84.5455C88.0829 87.0277 86.8364 88.3754 85.0573 88.3754C83.2835 88.3754 82.0318 87.0277 82.0318 84.5455C82.0318 82.0632 83.2835 80.7156 85.0573 80.7156C86.8364 80.7156 88.0829 82.0632 88.0829 84.5455ZM93.6811 85.206C93.6811 84.0234 94.3949 83.3416 95.4123 83.3416C96.4084 83.3416 97.005 83.9968 97.005 85.0888V90H98.9333V84.7905C98.9386 82.8303 97.82 81.7116 96.1314 81.7116C94.9063 81.7116 94.0647 82.2976 93.6918 83.2085H93.5959V81.8182H91.7529V90H93.6811V85.206ZM104.416 90.1598C106.323 90.1598 107.633 89.2276 107.974 87.8054L106.173 87.603C105.912 88.2955 105.273 88.6577 104.442 88.6577C103.196 88.6577 102.37 87.8374 102.354 86.4364H108.054V85.8452C108.054 82.9741 106.328 81.7116 104.314 81.7116C101.971 81.7116 100.442 83.4322 100.442 85.957C100.442 88.5245 101.949 90.1598 104.416 90.1598ZM102.36 85.1367C102.418 84.0927 103.191 83.2138 104.341 83.2138C105.449 83.2138 106.195 84.0234 106.205 85.1367H102.36Z" fill="#1C1C1C"/>
</svg>
