<svg width="260" height="260" viewBox="0 0 260 260" fill="none" xmlns="http://www.w3.org/2000/svg">
<path fill-rule="evenodd" clip-rule="evenodd" d="M3.30112 159.238C1.1412 149.84 0 140.053 0 130C0 58.203 58.203 0 130 0V70C96.8629 70 70 96.8629 70 130C70 134.64 70.5267 139.157 71.5236 143.495L3.30112 159.238Z" fill="#F7F7F7"/>
<path fill-rule="evenodd" clip-rule="evenodd" d="M100.762 256.699L116.481 188.583C94.2547 183.343 76.8001 165.744 71.7701 143.438L3.30103 159.238C14.4064 207.558 52.4421 245.594 100.762 256.699Z" fill="#DBDBDB"/>
<path fill-rule="evenodd" clip-rule="evenodd" d="M256.699 159.238L188.313 143.457C182.312 170.261 158.376 190.292 129.762 190.292C125.18 190.292 120.717 189.778 116.429 188.805L100.762 256.699C110.146 258.856 119.917 259.997 129.955 260C129.97 260 129.985 260 130 260C130.015 260 130.03 260 130.045 260C191.769 259.979 243.437 216.942 256.699 159.238Z" fill="#24AFB5" fill-opacity="0.2"/>
<path fill-rule="evenodd" clip-rule="evenodd" d="M130 0V70C163.137 70 190 96.8629 190 130C190 134.64 189.473 139.157 188.476 143.495L256.699 159.238C258.859 149.84 260 140.053 260 130C260 58.203 201.797 0 130 0Z" fill="#24AFB5"/>
</svg>
