<svg width="50" height="9" viewBox="0 0 50 9" fill="none" xmlns="http://www.w3.org/2000/svg">
<path fill-rule="evenodd" clip-rule="evenodd" d="M46 8.99805C48.2091 8.99805 50 7.19276 50 4.96582C50 2.73888 48.2091 0.933594 46 0.933594C43.7909 0.933594 42 2.73888 42 4.96582C42 7.19276 43.7909 8.99805 46 8.99805Z" fill="#DBDBDB"/>
<path fill-rule="evenodd" clip-rule="evenodd" d="M32 8.99805C34.2091 8.99805 36 7.19276 36 4.96582C36 2.73888 34.2091 0.933594 32 0.933594C29.7909 0.933594 28 2.73888 28 4.96582C28 7.19276 29.7909 8.99805 32 8.99805Z" fill="#DBDBDB"/>
<path fill-rule="evenodd" clip-rule="evenodd" d="M18 8.99805C20.2091 8.99805 22 7.19276 22 4.96582C22 2.73888 20.2091 0.933594 18 0.933594C15.7909 0.933594 14 2.73888 14 4.96582C14 7.19276 15.7909 8.99805 18 8.99805Z" fill="#24AFB5"/>
<path fill-rule="evenodd" clip-rule="evenodd" d="M4 8.99805C6.20914 8.99805 8 7.19276 8 4.96582C8 2.73888 6.20914 0.933594 4 0.933594C1.79086 0.933594 0 2.73888 0 4.96582C0 7.19276 1.79086 8.99805 4 8.99805Z" fill="#DBDBDB"/>
</svg>
