<svg width="128" height="43" viewBox="0 0 128 43" fill="none" xmlns="http://www.w3.org/2000/svg">
<path fill-rule="evenodd" clip-rule="evenodd" d="M31.5702 17.7026L31.5693 17.7478L31.5689 17.7664L31.5682 17.7951H31.5651C31.5639 17.7632 31.5627 17.6957 31.5615 17.573L31.5365 15.25H29.2481H16.3812V19.9322H26.7872C26.4372 22.3458 25.4815 24.2819 24.0605 25.6836C22.2399 27.4796 19.5967 28.4583 16.4317 28.4923C16.2227 28.4946 16.2587 28.4936 16.331 28.4917H16.3311C16.4344 28.489 16.6119 28.4843 16.2534 28.4843C13.0322 28.4843 10.1333 27.1734 8.04117 25.0544C5.93996 22.9262 4.64526 19.977 4.64526 16.7143C4.64526 13.4528 5.93965 10.507 8.03965 8.38125C10.1314 6.26409 13.031 4.95532 16.2534 4.95532C17.7727 4.95532 19.2217 5.24646 20.549 5.77629C21.9353 6.32943 23.1864 7.13599 24.244 8.13766L27.4193 4.73565C25.9268 3.32227 24.1777 2.19052 22.2545 1.42292C20.395 0.681103 18.3701 0.273071 16.2534 0.273071C11.7557 0.273071 7.69604 2.1129 4.75574 5.08908C1.81361 8.06679 0 12.1775 0 16.7143C0 21.2511 1.81391 25.3655 4.75696 28.3466C7.69696 31.3246 11.756 33.1666 16.2534 33.1666C16.4465 33.1666 16.4142 33.166 16.3493 33.1649C16.3176 33.1644 16.2781 33.1637 16.2534 33.1629C16.2269 33.162 16.2175 33.1611 16.2534 33.1598C16.2847 33.1589 16.3499 33.1577 16.4683 33.1565C20.8627 33.1092 24.6193 31.6652 27.3085 29.0126C29.9993 26.358 31.5627 22.5541 31.5627 17.7951L31.5651 17.7951C31.5663 17.831 31.5673 17.8215 31.5682 17.7951H31.5718C31.5718 17.6081 31.5713 17.6396 31.5702 17.7026ZM43.8055 16.2625C45.4734 16.2625 46.9817 16.9642 48.0719 18.0984C49.1636 19.2344 49.8389 20.8119 49.8389 22.5619C49.8389 24.3118 49.1636 25.8896 48.0719 27.0254C46.9817 28.1596 45.4734 28.8612 43.8055 28.8612C42.1374 28.8612 40.6291 28.1596 39.5389 27.0254C38.4472 25.8896 37.7718 24.3118 37.7718 22.5619C37.7718 20.8119 38.4472 19.2344 39.5389 18.0984C40.6291 16.9642 42.1374 16.2625 43.8055 16.2625ZM51.2615 15.1391C49.3517 13.2317 46.7154 12.0518 43.8055 12.0518C40.8957 12.0518 38.2591 13.2317 36.3493 15.1391C34.4411 17.0448 33.2608 19.6697 33.2608 22.5619C33.2608 25.454 34.4411 28.0789 36.3493 29.9847C38.2591 31.8923 40.8957 33.0719 43.8055 33.0719C46.7154 33.0719 49.3517 31.8923 51.2615 29.9847C53.17 28.0789 54.3503 25.454 54.3503 22.5619C54.3503 19.6697 53.17 17.0448 51.2615 15.1391ZM70.751 18.0984C69.6608 16.9642 68.1525 16.2625 66.4847 16.2625C64.8165 16.2625 63.3082 16.9642 62.218 18.0984C61.1266 19.2344 60.4513 20.8119 60.4513 22.5619C60.4513 24.3118 61.1266 25.8896 62.218 27.0254C63.3082 28.1596 64.8165 28.8612 66.4847 28.8612C68.1525 28.8612 69.6608 28.1596 70.751 27.0254C71.8427 25.8896 72.5181 24.3118 72.5181 22.5619C72.5181 20.8119 71.8427 19.2344 70.751 18.0984ZM66.4847 12.0518C69.3945 12.0518 72.0308 13.2317 73.9409 15.1391C75.8491 17.0448 77.0294 19.6697 77.0294 22.5619C77.0294 25.454 75.8491 28.0789 73.9409 29.9847C72.0308 31.8923 69.3945 33.0719 66.4847 33.0719C63.5748 33.0719 60.9385 31.8923 59.0284 29.9847C57.1202 28.0789 55.9396 25.454 55.9396 22.5619C55.9396 19.6697 57.1202 17.0448 59.0284 15.1391C60.9385 13.2317 63.5748 12.0518 66.4847 12.0518ZM88.9833 16.2625C90.572 16.2625 92.0089 16.9642 93.0473 18.0984C94.0872 19.2344 94.7303 20.8119 94.7303 22.5619C94.7303 24.3118 94.0872 25.8896 93.0473 27.0254C92.0089 28.1596 90.572 28.9769 88.9833 28.9769C85.6014 28.9769 83.2363 26.0982 83.2363 22.5619C83.2363 20.8119 83.8794 19.2344 84.9194 18.0984C85.9578 16.9642 87.3943 16.2625 88.9833 16.2625ZM94.2939 14.4739C92.7466 12.9615 91.0249 12.0518 88.1859 12.0518C83.4317 12.0518 78.6455 16.7203 78.6455 22.5619C78.6455 25.454 79.7135 28.0789 81.4401 29.9847C83.1682 31.8923 85.9946 33.0719 88.6272 33.0719C90.9415 33.0719 92.7228 32.1604 94.2939 30.6446V32.9455C94.2939 36.3546 91.517 38.4236 89.3035 38.4236C86.1791 38.4236 84.5085 37.1372 83.3891 34.6405L79.4353 36.4368C80.3776 38.5386 81.7511 40.0309 83.3611 41.0298C85.1708 42.1526 87.2412 42.5533 89.3035 42.5533C91.5618 42.5533 93.8428 41.5927 95.5408 40.0707C97.3036 38.4908 98.6053 35.4618 98.6053 32.6691V12.6445H94.2939V14.4739ZM101.393 32.4697H105.844V1.62614H101.393V32.4697ZM123.349 26.0761C121.008 30.0076 114.833 29.9613 113.081 25.7527C115.778 24.6577 118.468 23.5496 121.158 22.4415C123.158 21.6177 125.158 20.7939 127.161 19.9755C125.607 15.9391 123.482 13.6167 120.863 12.6579C116.83 11.1817 112.921 12.5579 110.387 15.2648C107.281 18.583 106.322 25.5824 110.804 30.1441C112.639 32.0109 115.094 33.1632 118.144 33.1599C121.57 33.1409 124.715 31.6474 126.874 28.458L123.349 26.0761ZM121.853 18.3462L112.372 22.1952C112.233 20.171 113.312 18.3799 114.544 17.3307C117.749 15.127 120.18 16.1771 121.853 18.3462Z" fill="#969696"/>
</svg>
