<svg width="290" height="180" viewBox="0 0 290 180" fill="none" xmlns="http://www.w3.org/2000/svg">
<rect width="290" height="180" rx="8" fill="#DBDBDB"/>
<path fill-rule="evenodd" clip-rule="evenodd" d="M138.6 81.2H151.4C152.725 81.2 153.8 82.2745 153.8 83.6V96.4C153.8 97.7255 152.725 98.8 151.4 98.8H138.6C137.274 98.8 136.2 97.7255 136.2 96.4V83.6C136.2 82.2745 137.274 81.2 138.6 81.2ZM143.24 90.88L139.72 95.28H150.28L147.64 91.76L145.854 94.1448L143.24 90.88ZM149.4 86.92C149.4 86.1896 148.81 85.6 148.08 85.6C147.35 85.6 146.76 86.1896 146.76 86.92C146.76 87.6504 147.35 88.24 148.08 88.24C148.81 88.24 149.4 87.6504 149.4 86.92Z" fill="#969696"/>
</svg>
