<svg width="28" height="21" viewBox="0 0 28 21" fill="none" xmlns="http://www.w3.org/2000/svg">
<path fill-rule="evenodd" clip-rule="evenodd" d="M6.34 20.5936C7.36 20.5936 8.3 20.009 8.74 19.1017L11.58 13.3762C11.86 12.8117 12 12.2069 12 11.5819V2.44916C12 1.34033 11.1 0.433105 10 0.433105H2C0.9 0.433105 0 1.34033 0 2.44916V10.5134C0 11.6222 0.9 12.5294 2 12.5294H6L3.94 16.6825C3.04 18.4768 4.34 20.5936 6.34 20.5936ZM22.34 20.5936C23.36 20.5936 24.3 20.009 24.74 19.1017L27.58 13.3762C27.86 12.8117 28 12.2069 28 11.5819V2.44916C28 1.34033 27.1 0.433105 26 0.433105H18C16.9 0.433105 16 1.34033 16 2.44916V10.5134C16 11.6222 16.9 12.5294 18 12.5294H22L19.94 16.6825C19.04 18.4768 20.34 20.5936 22.34 20.5936Z" fill="#969696"/>
</svg>
